<mxfile host="app.diagrams.net" agent="Mozilla/5.0 (Macintosh; Intel Mac OS X 10_15_7) AppleWebKit/537.36 (KHTML, like Gecko) Chrome/130.0.0.0 Safari/537.36" version="24.8.3">
  <diagram id="C5RBs43oDa-KdzZeNtuy" name="Page-1">
    <mxGraphModel dx="2636" dy="1226" grid="1" gridSize="10" guides="1" tooltips="1" connect="1" arrows="1" fold="1" page="1" pageScale="1" pageWidth="827" pageHeight="1169" math="0" shadow="0">
      <root>
        <mxCell id="WIyWlLk6GJQsqaUBKTNV-0" />
        <mxCell id="WIyWlLk6GJQsqaUBKTNV-1" parent="WIyWlLk6GJQsqaUBKTNV-0" />
        <mxCell id="as8VINRg8az_hKD_CEOK-18" style="edgeStyle=none;curved=1;rounded=0;orthogonalLoop=1;jettySize=auto;html=1;entryX=0.5;entryY=0;entryDx=0;entryDy=0;fontSize=12;startSize=8;endSize=8;" edge="1" parent="WIyWlLk6GJQsqaUBKTNV-1" source="WIyWlLk6GJQsqaUBKTNV-3" target="as8VINRg8az_hKD_CEOK-0">
          <mxGeometry relative="1" as="geometry" />
        </mxCell>
        <mxCell id="WIyWlLk6GJQsqaUBKTNV-3" value="User Browser" style="rounded=1;whiteSpace=wrap;html=1;fontSize=12;glass=0;strokeWidth=1;shadow=0;" parent="WIyWlLk6GJQsqaUBKTNV-1" vertex="1">
          <mxGeometry x="40" y="90" width="100" height="40" as="geometry" />
        </mxCell>
        <mxCell id="as8VINRg8az_hKD_CEOK-0" value="&lt;b style=&quot;&quot;&gt;&lt;font style=&quot;font-size: 14px;&quot; face=&quot;Courier New&quot;&gt;FrontEnd UI&lt;/font&gt;&lt;/b&gt;" style="rounded=1;whiteSpace=wrap;html=1;" vertex="1" parent="WIyWlLk6GJQsqaUBKTNV-1">
          <mxGeometry x="160" y="170" width="120" height="60" as="geometry" />
        </mxCell>
        <mxCell id="as8VINRg8az_hKD_CEOK-2" style="edgeStyle=none;curved=1;rounded=0;orthogonalLoop=1;jettySize=auto;html=1;entryX=0.5;entryY=0;entryDx=0;entryDy=0;fontSize=12;startSize=8;endSize=8;" edge="1" parent="WIyWlLk6GJQsqaUBKTNV-1" source="as8VINRg8az_hKD_CEOK-1" target="as8VINRg8az_hKD_CEOK-0">
          <mxGeometry relative="1" as="geometry" />
        </mxCell>
        <mxCell id="as8VINRg8az_hKD_CEOK-1" value="Font Awesome CDN" style="rounded=1;whiteSpace=wrap;html=1;fontSize=12;glass=0;strokeWidth=1;shadow=0;" vertex="1" parent="WIyWlLk6GJQsqaUBKTNV-1">
          <mxGeometry x="430" y="90" width="120" height="40" as="geometry" />
        </mxCell>
        <mxCell id="as8VINRg8az_hKD_CEOK-17" style="edgeStyle=none;curved=1;rounded=0;orthogonalLoop=1;jettySize=auto;html=1;fontSize=12;startSize=8;endSize=8;" edge="1" parent="WIyWlLk6GJQsqaUBKTNV-1" source="as8VINRg8az_hKD_CEOK-14">
          <mxGeometry relative="1" as="geometry">
            <mxPoint x="260" y="170" as="targetPoint" />
          </mxGeometry>
        </mxCell>
        <mxCell id="as8VINRg8az_hKD_CEOK-14" value="Remix Icons CDN" style="rounded=1;whiteSpace=wrap;html=1;fontSize=12;glass=0;strokeWidth=1;shadow=0;" vertex="1" parent="WIyWlLk6GJQsqaUBKTNV-1">
          <mxGeometry x="570" y="120" width="120" height="40" as="geometry" />
        </mxCell>
        <mxCell id="as8VINRg8az_hKD_CEOK-24" value="" style="swimlane;startSize=0;dashed=1;strokeWidth=1;strokeColor=#b85450;fillColor=#f8cecc;" vertex="1" parent="WIyWlLk6GJQsqaUBKTNV-1">
          <mxGeometry x="400" y="60" width="310" height="140" as="geometry">
            <mxRectangle x="200" y="60" width="50" height="40" as="alternateBounds" />
          </mxGeometry>
        </mxCell>
        <mxCell id="as8VINRg8az_hKD_CEOK-25" value="&lt;font style=&quot;font-size: 13px;&quot; face=&quot;Courier New&quot;&gt;External Services&lt;/font&gt;" style="text;strokeColor=none;fillColor=none;html=1;align=center;verticalAlign=middle;whiteSpace=wrap;rounded=0;fontSize=16;" vertex="1" parent="as8VINRg8az_hKD_CEOK-24">
          <mxGeometry x="50" width="210" height="30" as="geometry" />
        </mxCell>
        <mxCell id="as8VINRg8az_hKD_CEOK-37" value="" style="rounded=0;whiteSpace=wrap;html=1;fillColor=none;strokeColor=#6c8ebf;dashed=1;" vertex="1" parent="as8VINRg8az_hKD_CEOK-24">
          <mxGeometry x="-380" y="-15" width="710" height="310" as="geometry" />
        </mxCell>
        <mxCell id="as8VINRg8az_hKD_CEOK-48" style="edgeStyle=none;curved=1;rounded=0;orthogonalLoop=1;jettySize=auto;html=1;fontSize=12;startSize=8;endSize=8;entryX=0.25;entryY=0;entryDx=0;entryDy=0;" edge="1" parent="WIyWlLk6GJQsqaUBKTNV-1" source="as8VINRg8az_hKD_CEOK-27" target="as8VINRg8az_hKD_CEOK-42">
          <mxGeometry relative="1" as="geometry" />
        </mxCell>
        <mxCell id="as8VINRg8az_hKD_CEOK-27" value="Navigation" style="rounded=1;whiteSpace=wrap;html=1;fontSize=12;glass=0;strokeWidth=1;shadow=0;" vertex="1" parent="WIyWlLk6GJQsqaUBKTNV-1">
          <mxGeometry x="40" y="290" width="100" height="40" as="geometry" />
        </mxCell>
        <mxCell id="as8VINRg8az_hKD_CEOK-49" style="edgeStyle=none;curved=1;rounded=0;orthogonalLoop=1;jettySize=auto;html=1;fontSize=12;startSize=8;endSize=8;" edge="1" parent="WIyWlLk6GJQsqaUBKTNV-1" source="as8VINRg8az_hKD_CEOK-28" target="as8VINRg8az_hKD_CEOK-42">
          <mxGeometry relative="1" as="geometry" />
        </mxCell>
        <mxCell id="as8VINRg8az_hKD_CEOK-28" value="Menu Display" style="rounded=1;whiteSpace=wrap;html=1;fontSize=12;glass=0;strokeWidth=1;shadow=0;" vertex="1" parent="WIyWlLk6GJQsqaUBKTNV-1">
          <mxGeometry x="150" y="290" width="100" height="40" as="geometry" />
        </mxCell>
        <mxCell id="as8VINRg8az_hKD_CEOK-50" style="edgeStyle=none;curved=1;rounded=0;orthogonalLoop=1;jettySize=auto;html=1;fontSize=12;startSize=8;endSize=8;entryX=0.633;entryY=-0.043;entryDx=0;entryDy=0;entryPerimeter=0;" edge="1" parent="WIyWlLk6GJQsqaUBKTNV-1" source="as8VINRg8az_hKD_CEOK-29" target="as8VINRg8az_hKD_CEOK-42">
          <mxGeometry relative="1" as="geometry">
            <mxPoint x="260" y="395" as="targetPoint" />
          </mxGeometry>
        </mxCell>
        <mxCell id="as8VINRg8az_hKD_CEOK-29" value="Order Form" style="rounded=1;whiteSpace=wrap;html=1;fontSize=12;glass=0;strokeWidth=1;shadow=0;" vertex="1" parent="WIyWlLk6GJQsqaUBKTNV-1">
          <mxGeometry x="260" y="290" width="100" height="40" as="geometry" />
        </mxCell>
        <mxCell id="as8VINRg8az_hKD_CEOK-30" value="Review Section" style="rounded=1;whiteSpace=wrap;html=1;fontSize=12;glass=0;strokeWidth=1;shadow=0;" vertex="1" parent="WIyWlLk6GJQsqaUBKTNV-1">
          <mxGeometry x="370" y="290" width="100" height="40" as="geometry" />
        </mxCell>
        <mxCell id="as8VINRg8az_hKD_CEOK-52" style="edgeStyle=none;curved=1;rounded=0;orthogonalLoop=1;jettySize=auto;html=1;entryX=1;entryY=0;entryDx=0;entryDy=0;fontSize=12;startSize=8;endSize=8;" edge="1" parent="WIyWlLk6GJQsqaUBKTNV-1" source="as8VINRg8az_hKD_CEOK-31" target="as8VINRg8az_hKD_CEOK-42">
          <mxGeometry relative="1" as="geometry" />
        </mxCell>
        <mxCell id="as8VINRg8az_hKD_CEOK-31" value="Shopping Cart" style="rounded=1;whiteSpace=wrap;html=1;fontSize=12;glass=0;strokeWidth=1;shadow=0;" vertex="1" parent="WIyWlLk6GJQsqaUBKTNV-1">
          <mxGeometry x="490" y="290" width="100" height="40" as="geometry" />
        </mxCell>
        <mxCell id="as8VINRg8az_hKD_CEOK-41" value="&lt;font face=&quot;Courier New&quot;&gt;Client&lt;/font&gt;" style="text;strokeColor=none;fillColor=none;html=1;align=center;verticalAlign=middle;whiteSpace=wrap;rounded=0;fontSize=16;" vertex="1" parent="WIyWlLk6GJQsqaUBKTNV-1">
          <mxGeometry x="-30" y="50" width="210" height="30" as="geometry" />
        </mxCell>
        <mxCell id="as8VINRg8az_hKD_CEOK-54" style="edgeStyle=none;curved=1;rounded=0;orthogonalLoop=1;jettySize=auto;html=1;fontSize=12;startSize=8;endSize=8;" edge="1" parent="WIyWlLk6GJQsqaUBKTNV-1" source="as8VINRg8az_hKD_CEOK-42" target="as8VINRg8az_hKD_CEOK-43">
          <mxGeometry relative="1" as="geometry" />
        </mxCell>
        <mxCell id="as8VINRg8az_hKD_CEOK-55" style="edgeStyle=none;curved=1;rounded=0;orthogonalLoop=1;jettySize=auto;html=1;fontSize=12;startSize=8;endSize=8;" edge="1" parent="WIyWlLk6GJQsqaUBKTNV-1" source="as8VINRg8az_hKD_CEOK-42" target="as8VINRg8az_hKD_CEOK-44">
          <mxGeometry relative="1" as="geometry" />
        </mxCell>
        <mxCell id="as8VINRg8az_hKD_CEOK-56" style="edgeStyle=none;curved=1;rounded=0;orthogonalLoop=1;jettySize=auto;html=1;fontSize=12;startSize=8;endSize=8;" edge="1" parent="WIyWlLk6GJQsqaUBKTNV-1" source="as8VINRg8az_hKD_CEOK-42" target="as8VINRg8az_hKD_CEOK-45">
          <mxGeometry relative="1" as="geometry" />
        </mxCell>
        <mxCell id="as8VINRg8az_hKD_CEOK-42" value="&lt;b style=&quot;&quot;&gt;&lt;font style=&quot;font-size: 14px;&quot; face=&quot;Courier New&quot;&gt;JS Handler&lt;/font&gt;&lt;/b&gt;" style="rounded=1;whiteSpace=wrap;html=1;" vertex="1" parent="WIyWlLk6GJQsqaUBKTNV-1">
          <mxGeometry x="170" y="400" width="120" height="60" as="geometry" />
        </mxCell>
        <mxCell id="as8VINRg8az_hKD_CEOK-43" value="VanillaTitle.js" style="rounded=1;whiteSpace=wrap;html=1;fontSize=12;glass=0;strokeWidth=1;shadow=0;" vertex="1" parent="WIyWlLk6GJQsqaUBKTNV-1">
          <mxGeometry x="50" y="520" width="100" height="40" as="geometry" />
        </mxCell>
        <mxCell id="as8VINRg8az_hKD_CEOK-44" value="Swiper.js" style="rounded=1;whiteSpace=wrap;html=1;fontSize=12;glass=0;strokeWidth=1;shadow=0;" vertex="1" parent="WIyWlLk6GJQsqaUBKTNV-1">
          <mxGeometry x="160" y="520" width="100" height="40" as="geometry" />
        </mxCell>
        <mxCell id="as8VINRg8az_hKD_CEOK-45" value="ScrollReveal.js" style="rounded=1;whiteSpace=wrap;html=1;fontSize=12;glass=0;strokeWidth=1;shadow=0;" vertex="1" parent="WIyWlLk6GJQsqaUBKTNV-1">
          <mxGeometry x="270" y="520" width="100" height="40" as="geometry" />
        </mxCell>
        <mxCell id="as8VINRg8az_hKD_CEOK-79" style="edgeStyle=none;curved=1;rounded=0;orthogonalLoop=1;jettySize=auto;html=1;fontSize=12;startSize=8;endSize=8;" edge="1" parent="WIyWlLk6GJQsqaUBKTNV-1" source="as8VINRg8az_hKD_CEOK-46" target="as8VINRg8az_hKD_CEOK-73">
          <mxGeometry relative="1" as="geometry" />
        </mxCell>
        <mxCell id="as8VINRg8az_hKD_CEOK-46" value="API Reqs" style="rounded=1;whiteSpace=wrap;html=1;fontSize=12;glass=0;strokeWidth=1;shadow=0;" vertex="1" parent="WIyWlLk6GJQsqaUBKTNV-1">
          <mxGeometry x="380" y="520" width="100" height="40" as="geometry" />
        </mxCell>
        <mxCell id="as8VINRg8az_hKD_CEOK-51" style="edgeStyle=none;curved=1;rounded=0;orthogonalLoop=1;jettySize=auto;html=1;entryX=0.848;entryY=-0.043;entryDx=0;entryDy=0;entryPerimeter=0;fontSize=12;startSize=8;endSize=8;" edge="1" parent="WIyWlLk6GJQsqaUBKTNV-1" source="as8VINRg8az_hKD_CEOK-30" target="as8VINRg8az_hKD_CEOK-42">
          <mxGeometry relative="1" as="geometry" />
        </mxCell>
        <mxCell id="as8VINRg8az_hKD_CEOK-57" style="edgeStyle=none;curved=1;rounded=0;orthogonalLoop=1;jettySize=auto;html=1;fontSize=12;startSize=8;endSize=8;" edge="1" parent="WIyWlLk6GJQsqaUBKTNV-1" source="as8VINRg8az_hKD_CEOK-42">
          <mxGeometry relative="1" as="geometry">
            <mxPoint x="330" y="480" as="sourcePoint" />
            <mxPoint x="420" y="520" as="targetPoint" />
          </mxGeometry>
        </mxCell>
        <mxCell id="as8VINRg8az_hKD_CEOK-58" style="edgeStyle=none;curved=1;rounded=0;orthogonalLoop=1;jettySize=auto;html=1;entryX=0.417;entryY=0.132;entryDx=0;entryDy=0;entryPerimeter=0;fontSize=12;startSize=8;endSize=8;" edge="1" parent="WIyWlLk6GJQsqaUBKTNV-1" source="as8VINRg8az_hKD_CEOK-0" target="as8VINRg8az_hKD_CEOK-27">
          <mxGeometry relative="1" as="geometry" />
        </mxCell>
        <mxCell id="as8VINRg8az_hKD_CEOK-59" style="edgeStyle=none;curved=1;rounded=0;orthogonalLoop=1;jettySize=auto;html=1;entryX=0.646;entryY=0.096;entryDx=0;entryDy=0;entryPerimeter=0;fontSize=12;startSize=8;endSize=8;" edge="1" parent="WIyWlLk6GJQsqaUBKTNV-1" source="as8VINRg8az_hKD_CEOK-0" target="as8VINRg8az_hKD_CEOK-28">
          <mxGeometry relative="1" as="geometry" />
        </mxCell>
        <mxCell id="as8VINRg8az_hKD_CEOK-60" style="edgeStyle=none;curved=1;rounded=0;orthogonalLoop=1;jettySize=auto;html=1;entryX=0.389;entryY=0.096;entryDx=0;entryDy=0;entryPerimeter=0;fontSize=12;startSize=8;endSize=8;" edge="1" parent="WIyWlLk6GJQsqaUBKTNV-1" source="as8VINRg8az_hKD_CEOK-0" target="as8VINRg8az_hKD_CEOK-29">
          <mxGeometry relative="1" as="geometry" />
        </mxCell>
        <mxCell id="as8VINRg8az_hKD_CEOK-61" style="edgeStyle=none;curved=1;rounded=0;orthogonalLoop=1;jettySize=auto;html=1;entryX=0.403;entryY=0.025;entryDx=0;entryDy=0;entryPerimeter=0;fontSize=12;startSize=8;endSize=8;" edge="1" parent="WIyWlLk6GJQsqaUBKTNV-1" source="as8VINRg8az_hKD_CEOK-0" target="as8VINRg8az_hKD_CEOK-30">
          <mxGeometry relative="1" as="geometry" />
        </mxCell>
        <mxCell id="as8VINRg8az_hKD_CEOK-62" style="edgeStyle=none;curved=1;rounded=0;orthogonalLoop=1;jettySize=auto;html=1;entryX=0.617;entryY=0.061;entryDx=0;entryDy=0;entryPerimeter=0;fontSize=12;startSize=8;endSize=8;" edge="1" parent="WIyWlLk6GJQsqaUBKTNV-1" source="as8VINRg8az_hKD_CEOK-0" target="as8VINRg8az_hKD_CEOK-31">
          <mxGeometry relative="1" as="geometry" />
        </mxCell>
        <mxCell id="as8VINRg8az_hKD_CEOK-65" value="" style="rounded=0;whiteSpace=wrap;html=1;fillColor=none;strokeColor=#82b366;dashed=1;strokeWidth=1;" vertex="1" parent="WIyWlLk6GJQsqaUBKTNV-1">
          <mxGeometry x="20" y="380" width="710" height="200" as="geometry" />
        </mxCell>
        <mxCell id="as8VINRg8az_hKD_CEOK-70" value="&lt;font face=&quot;Courier New&quot;&gt;FrontEnd Components&lt;/font&gt;" style="text;strokeColor=none;fillColor=none;html=1;align=left;verticalAlign=middle;whiteSpace=wrap;rounded=0;fontSize=16;" vertex="1" parent="WIyWlLk6GJQsqaUBKTNV-1">
          <mxGeometry x="50" y="410" width="60" height="30" as="geometry" />
        </mxCell>
        <mxCell id="as8VINRg8az_hKD_CEOK-80" style="edgeStyle=none;curved=1;rounded=0;orthogonalLoop=1;jettySize=auto;html=1;fontSize=12;startSize=8;endSize=8;" edge="1" parent="WIyWlLk6GJQsqaUBKTNV-1" source="as8VINRg8az_hKD_CEOK-73" target="as8VINRg8az_hKD_CEOK-74">
          <mxGeometry relative="1" as="geometry" />
        </mxCell>
        <mxCell id="as8VINRg8az_hKD_CEOK-73" value="Express Server" style="rounded=1;whiteSpace=wrap;html=1;fontSize=12;glass=0;strokeWidth=1;shadow=0;" vertex="1" parent="WIyWlLk6GJQsqaUBKTNV-1">
          <mxGeometry x="380" y="600" width="100" height="40" as="geometry" />
        </mxCell>
        <mxCell id="as8VINRg8az_hKD_CEOK-81" style="edgeStyle=none;curved=1;rounded=0;orthogonalLoop=1;jettySize=auto;html=1;entryX=0.5;entryY=0;entryDx=0;entryDy=0;fontSize=12;startSize=8;endSize=8;" edge="1" parent="WIyWlLk6GJQsqaUBKTNV-1" source="as8VINRg8az_hKD_CEOK-74" target="as8VINRg8az_hKD_CEOK-75">
          <mxGeometry relative="1" as="geometry" />
        </mxCell>
        <mxCell id="as8VINRg8az_hKD_CEOK-74" value="Route Handlet" style="rounded=1;whiteSpace=wrap;html=1;fontSize=12;glass=0;strokeWidth=1;shadow=0;" vertex="1" parent="WIyWlLk6GJQsqaUBKTNV-1">
          <mxGeometry x="380" y="660" width="100" height="40" as="geometry" />
        </mxCell>
        <mxCell id="as8VINRg8az_hKD_CEOK-82" style="edgeStyle=none;curved=1;rounded=0;orthogonalLoop=1;jettySize=auto;html=1;entryX=0.5;entryY=0;entryDx=0;entryDy=0;fontSize=12;startSize=8;endSize=8;" edge="1" parent="WIyWlLk6GJQsqaUBKTNV-1" source="as8VINRg8az_hKD_CEOK-75" target="as8VINRg8az_hKD_CEOK-76">
          <mxGeometry relative="1" as="geometry" />
        </mxCell>
        <mxCell id="as8VINRg8az_hKD_CEOK-75" value="Order Controller" style="rounded=1;whiteSpace=wrap;html=1;fontSize=12;glass=0;strokeWidth=1;shadow=0;" vertex="1" parent="WIyWlLk6GJQsqaUBKTNV-1">
          <mxGeometry x="380" y="720" width="100" height="40" as="geometry" />
        </mxCell>
        <mxCell id="as8VINRg8az_hKD_CEOK-76" value="Mongoose ODM" style="rounded=1;whiteSpace=wrap;html=1;fontSize=12;glass=0;strokeWidth=1;shadow=0;" vertex="1" parent="WIyWlLk6GJQsqaUBKTNV-1">
          <mxGeometry x="380" y="780" width="100" height="40" as="geometry" />
        </mxCell>
        <mxCell id="as8VINRg8az_hKD_CEOK-77" value="" style="shape=cylinder3;whiteSpace=wrap;html=1;boundedLbl=1;backgroundOutline=1;size=15;" vertex="1" parent="WIyWlLk6GJQsqaUBKTNV-1">
          <mxGeometry x="365" y="850" width="130" height="80" as="geometry" />
        </mxCell>
        <mxCell id="as8VINRg8az_hKD_CEOK-78" value="MongoDB Atlas" style="text;strokeColor=none;fillColor=none;html=1;align=center;verticalAlign=middle;whiteSpace=wrap;rounded=0;fontSize=16;" vertex="1" parent="WIyWlLk6GJQsqaUBKTNV-1">
          <mxGeometry x="365" y="890" width="140" height="30" as="geometry" />
        </mxCell>
        <mxCell id="as8VINRg8az_hKD_CEOK-83" style="edgeStyle=none;curved=1;rounded=0;orthogonalLoop=1;jettySize=auto;html=1;entryX=0.5;entryY=0;entryDx=0;entryDy=0;entryPerimeter=0;fontSize=12;startSize=8;endSize=8;" edge="1" parent="WIyWlLk6GJQsqaUBKTNV-1" source="as8VINRg8az_hKD_CEOK-76" target="as8VINRg8az_hKD_CEOK-77">
          <mxGeometry relative="1" as="geometry" />
        </mxCell>
        <mxCell id="as8VINRg8az_hKD_CEOK-84" value="" style="rounded=0;whiteSpace=wrap;html=1;fillColor=none;strokeColor=#9673a6;dashed=1;" vertex="1" parent="WIyWlLk6GJQsqaUBKTNV-1">
          <mxGeometry x="320" y="590" width="210" height="410" as="geometry" />
        </mxCell>
        <mxCell id="as8VINRg8az_hKD_CEOK-86" value="&lt;font face=&quot;Courier New&quot;&gt;Backend&lt;/font&gt;" style="text;strokeColor=none;fillColor=none;html=1;align=center;verticalAlign=middle;whiteSpace=wrap;rounded=0;fontSize=16;" vertex="1" parent="WIyWlLk6GJQsqaUBKTNV-1">
          <mxGeometry x="400" y="950" width="60" height="30" as="geometry" />
        </mxCell>
      </root>
    </mxGraphModel>
  </diagram>
</mxfile>
